# xmcd CD database file
#
# Track frame offsets:
#	150
#	19878
#	47386
#	73061
#	93650
#	112159
#	131576
#	161648
#	186132
#	207608
#
# Disc length: 3195 seconds
#
# Revision: 0
# Processed by: cddbd v1.5.1PL0 Copyright (c) Steve Scherf et al.
# Submitted via: CDex 1.50Beta7
#
DISCID=930c790a
DTITLE=Toru Dodo - 116 WEST 238 St.
DYEAR=2004
DGENRE=Jazz
TTITLE0=3 Faces
TTITLE1=Alice in Wonderland
TTITLE2=So So So So So See Me
TTITLE3=Premonition
TTITLE4=Intermezzo 2
TTITLE5=12-13
TTITLE6=November 1st
TTITLE7=Metamorphosis
TTITLE8=Love Theme from Cinema Paradiso
TTITLE9=Enduring Freedom
EXTD=YEAR: 2004
EXTT0=
EXTT1=
EXTT2=
EXTT3=
EXTT4=
EXTT5=
EXTT6=
EXTT7=
EXTT8=
EXTT9=
PLAYORDER=
